<svg width="93" height="26" viewBox="0 0 93 26" fill="none" xmlns="http://www.w3.org/2000/svg">
<path fill-rule="evenodd" clip-rule="evenodd" d="M0.952337 18.121L1.102 18.4582C1.29815 18.8673 1.59539 19.2196 1.96562 19.4818L10.1151 25.2408C10.484 25.5025 10.9154 25.6625 11.3657 25.7046L11.7382 25.739C12.1882 25.7805 12.6424 25.7019 13.0526 25.5118L22.1192 21.3279C22.5284 21.1387 22.8817 20.8459 23.1416 20.4783L23.3514 20.1743C23.6137 19.8052 23.7741 19.3735 23.8164 18.9227L24.7335 8.98088C24.775 8.53079 24.6964 8.07665 24.5053 7.66636L24.3556 7.32919C24.16 6.92351 23.8681 6.5722 23.5059 6.30681L15.3425 0.54658C14.9755 0.279736 14.5434 0.119367 14.092 0.0817379L13.7335 0.0486687C13.2824 0.00705667 12.8283 0.0856717 12.418 0.276791L3.3514 4.45963C2.93777 4.64341 2.5842 4.93818 2.32903 5.30931L2.10618 5.61313C1.84671 5.98331 1.68665 6.41393 1.64133 6.86371L0.724215 16.8055C0.683605 17.2564 0.762275 17.7101 0.952337 18.121ZM11.9748 23.1739L11.6024 23.1395L4.48524 18.1105L12.5921 14.3814L19.88 19.5296L11.9748 23.1739ZM12.3333 3.15418L4.4292 6.79752L4.20744 7.10043L3.40744 15.7726L11.5154 12.0316L12.3333 3.15418Z" fill="white"/>
<path d="M11.9768 23.2173L11.6044 23.1829L4.48736 18.1529L12.5941 14.4248L19.882 19.573L11.9768 23.2173ZM4.42412 6.8091L12.3282 3.16576L11.5093 12.0431L3.40136 15.7841L4.20136 7.11192L4.42412 6.8091Z" fill="#161616"/>
<path d="M31.6144 20.0106V5.81059H37.1344C40.6544 5.81059 42.5744 7.01059 42.5744 9.67059C42.5744 11.3706 41.5344 12.4506 39.7144 12.6706C41.9544 12.8906 43.1744 14.1306 43.1744 16.0906C43.1744 18.7306 41.2544 20.0106 37.8144 20.0106H31.6144ZM37.6744 17.5306C39.1344 17.5306 40.1144 16.9506 40.1144 15.7306C40.1144 14.5306 39.1344 13.8906 37.6744 13.8906H34.6544V17.5306H37.6744ZM37.0544 11.6906C38.5544 11.6906 39.5144 11.1106 39.5144 9.99059C39.5144 8.81059 38.5944 8.29059 37.0544 8.29059H34.6544V11.6906H37.0544Z" fill="white"/>
<path d="M47.3169 20.0106C45.5769 20.0106 44.5169 19.1906 44.5169 17.2106V5.81059H47.5169V16.8906C47.5169 17.5306 47.8169 17.7706 48.3769 17.7706H49.0969V20.0106H47.3169Z" fill="white"/>
<path d="M54.8231 20.2506C51.5431 20.2506 49.3831 18.0506 49.3831 14.6506C49.3831 11.2706 51.5431 9.05059 54.8231 9.05059C58.1031 9.05059 60.2631 11.2706 60.2631 14.6506C60.2631 18.0506 58.1031 20.2506 54.8231 20.2506ZM54.8231 17.9506C56.3231 17.9506 57.1631 16.7306 57.1631 14.6506C57.1631 12.5706 56.3231 11.3506 54.8231 11.3506C53.3231 11.3506 52.4631 12.5706 52.4631 14.6506C52.4631 16.7306 53.3231 17.9506 54.8231 17.9506Z" fill="white"/>
<path d="M61.1887 20.0106V5.81059H64.1887V13.6906L68.1687 9.29059H71.7687L67.6087 13.7106L71.8887 20.0106H68.6087L65.6687 15.4106L64.1887 16.9906V20.0106H61.1887Z" fill="white"/>
<path d="M75.44 20.2506C73.2 20.2506 71.68 19.1706 71.68 17.3306C71.68 15.4506 72.86 14.4906 75.2 14.0106L78.66 13.3306C78.66 11.9306 78.02 11.2306 76.82 11.2306C75.7 11.2306 75.06 11.7706 74.86 12.7706L71.86 12.6306C72.26 10.2706 74.04 9.05059 76.82 9.05059C80.02 9.05059 81.66 10.6106 81.66 13.5306V17.1906C81.66 17.7906 81.86 17.9506 82.26 17.9506H82.56V20.0106C82.36 20.0706 81.9 20.1306 81.48 20.1306C80.38 20.1306 79.4 19.7506 79.14 18.3906C78.58 19.5306 77.26 20.2506 75.44 20.2506ZM76.16 18.1906C77.66 18.1906 78.66 17.2706 78.66 15.7306V15.2106L76.22 15.7306C75.24 15.9306 74.76 16.3506 74.76 17.0506C74.76 17.7706 75.24 18.1906 76.16 18.1906Z" fill="white"/>
<path d="M83.6239 23.0106V20.7706H85.0439C85.7239 20.7706 85.9839 20.6106 86.1839 20.0906L86.4239 19.4706H85.6039L81.8239 9.29059H84.9039L87.3439 16.6706L89.6639 9.29059H92.7239L88.6039 21.0306C88.1039 22.4506 87.2839 23.0106 85.6639 23.0106H83.6239Z" fill="white"/>
</svg>
